Coordinates
version=1
nRows=22
nColumns=24
inDegrees=yes

Units are S.I. units (second, meters, Newtons, ...)
Angles are in degrees.

endheader
time	pelvis_tilt	pelvis_list	pelvis_rotation	pelvis_tx	pelvis_ty	pelvis_tz	hip_flexion_r	hip_adduction_r	hip_rotation_r	knee_angle_r	ankle_angle_r	subtalar_angle_r	mtp_angle_r	hip_flexion_l	hip_adduction_l	hip_rotation_l	knee_angle_l	ankle_angle_l	subtalar_angle_l	mtp_angle_l	lumbar_extension	lumbar_bending	lumbar_rotation
      3.85000000	     -9.30109726	     -9.92078905	      6.00108952	     -2.67741015	     -0.02059582	      0.44392336	     21.06335572	     10.10502217	     -6.78220761	    -14.15398489	     -6.53956634	     -4.96569978	      4.08312197	     16.67581628	    -10.15600352	      4.46546305	    -59.85221769	    -27.50678423	     -8.41297221	     23.55592784	      7.66042300	      9.39104321	     -2.36887349
      3.85500000	     -9.18274212	     -9.82588950	      6.01461682	     -2.67160736	     -0.01977046	      0.44459843	     20.36563060	     10.16434016	     -6.63494694	    -13.86802607	     -6.31999809	     -5.04782718	      4.10665424	     17.42606081	     -9.92924283	      4.61393422	    -60.66264018	    -27.16334749	     -9.85278928	     23.00439236	      7.48737868	      9.25744757	     -2.24353057
      3.86000000	     -9.03596914	     -9.60152750	      5.92815307	     -2.66580002	     -0.01882080	      0.44538144	     19.61458523	     10.12285674	     -6.36281752	    -13.59633591	     -6.02186280	     -5.01045291	      4.15430255	     18.05733129	     -9.59220606	      4.64726944	    -61.33127275	    -26.63835998	    -10.93079864	     22.49281489	      7.25452902	      9.00472543	     -1.98338015
      3.86500000	     -8.95017384	     -9.42268810	      5.88105590	     -2.66005341	     -0.01794237	      0.44612887	     18.91764494	     10.10171723	     -6.10161548	    -13.28102186	     -5.76025604	     -4.95785749	      4.17233967	     18.77753601	     -9.27885328	      4.78994827	    -61.91853035	    -25.97245135	    -11.62625992	     22.40690152	      7.10111393	      8.78348393	     -1.76498037
      3.87000000	     -8.78105310	     -9.11153081	      5.75793153	     -2.65434300	     -0.01687557	      0.44690108	     18.13444418	      9.96936528	     -5.85460160	    -13.00769709	     -5.48078625	     -4.87878302	      4.15667410	     19.33476992	     -8.86245569	      4.72753993	    -62.38309974	    -25.33788958	    -12.39799576	     21.82628772	      6.82617812	      8.45545606	     -1.38386740
      3.87500000	     -8.74314521	     -8.85524303	      5.71408382	     -2.64865345	     -0.01597000	      0.44760740	     17.47363887	      9.84856671	     -5.61286956	    -12.67290537	     -5.24979005	     -4.83418069	      4.15130296	     20.06155851	     -8.46099673	      4.81547439	    -62.74919625	    -24.60613752	    -12.86426977	     21.84399689	      6.72615670	      8.14903606	     -1.20087580
      3.88000000	     -8.64785645	     -8.47509896	      5.53091849	     -2.64297870	     -0.01492714	      0.44843429	     16.75442704	      9.64031412	     -5.27615684	    -12.38925478	     -4.97659280	     -4.73598337	      4.11570163	     20.63341305	     -7.98903604	      4.69660886	    -62.99002837	    -23.71004648	    -13.07029470	     21.63090556	      6.52625760	      7.74946939	     -0.76367622
      3.88500000	     -8.61344884	     -8.10891196	      5.40200113	     -2.63736528	     -0.01396187	      0.44918525	     16.10210004	      9.41596072	     -4.94816775	    -12.09010537	     -4.74142246	     -4.68585738	      4.05175289	     21.28310812	     -7.50686943	      4.63483606	    -63.14269000	    -22.78711363	    -13.15160226	     21.57499037	      6.40441380	      7.34725241	     -0.46089190
      3.89000000	     -8.61515980	     -7.70060668	      5.25030193	     -2.63177537	     -0.01300912	      0.44995958	     15.49192743	      9.14292879	     -4.60145715	    -11.80026588	     -4.52142362	     -4.64596170	      3.99736912	     21.93699935	     -6.98558835	      4.54083270	    -63.17739622	    -21.87486479	    -13.13904538	     21.62441446	      6.31710992	      6.90163847	     -0.12116596
      3.89500000	     -8.64424528	     -7.25551437	      5.07683808	     -2.62620946	     -0.01206513	      0.45073770	     14.92016169	      8.82538724	     -4.26457705	    -11.52429716	     -4.32452837	     -4.61539238	      3.94793777	     22.58658440	     -6.43521932	      4.40407948	    -63.09614107	    -20.98305792	    -13.06377080	     21.73754016	      6.25631474	      6.41894300	      0.25006215
      3.90000000	     -8.68821731	     -6.80051288	      4.88672977	     -2.62067176	     -0.01116383	      0.45153160	     14.36990583	      8.49390872	     -3.89292807	    -11.25427069	     -4.12060508	     -4.59059785	      3.89746857	     23.23070247	     -5.88863270	      4.23452491	    -62.92053694	    -20.09092723	    -12.92400286	     21.86904349	      6.21142214	      5.92635718	      0.62018572
      3.90500000	     -8.74348040	     -6.33920024	      4.66555719	     -2.61513111	     -0.01030647	      0.45233686	     13.83400815	      8.15400654	     -3.49848881	    -10.98422684	     -3.91818616	     -4.55864640	      3.84838799	     23.86191749	     -5.35543971	      4.02084567	    -62.65720855	    -19.20753900	    -12.72824310	     22.00714527	      6.18504608	      5.43493503	      1.01688743
      3.91000000	     -8.79891134	     -5.90292288	      4.41412627	     -2.60957839	     -0.00950702	      0.45314418	     13.28960979	      7.83891863	     -3.05090882	    -10.69106555	     -3.71060243	     -4.51004036	      3.79252545	     24.47582296	     -4.87286115	      3.77094284	    -62.31785198	    -18.31870489	    -12.47326262	     22.12172689	      6.16692885	      4.98088903	      1.44157620
      3.91500000	     -8.86892140	     -5.45422513	      4.15943933	     -2.60403937	     -0.00874462	      0.45395152	     12.77499376	      7.50104313	     -2.67987460	    -10.40691752	     -3.52502101	     -4.45119492	      3.76392269	     25.08300171	     -4.38377801	      3.50400240	    -61.88241166	    -17.52163483	    -12.29126491	     22.22779207	      6.17031712	      4.51067442	      1.86515860
      3.92000000	     -8.93621739	     -5.02322057	      3.89815521	     -2.59853891	     -0.00805754	      0.45471454	     12.27378358	      7.17152502	     -2.32740096	    -10.13833157	     -3.33564550	     -4.38303222	      3.75523604	     25.67469489	     -3.91812453	      3.23095336	    -61.37387686	    -16.76012567	    -12.16974996	     22.32285228	      6.17151684	      4.06663844	      2.27332309
      3.92500000	     -8.99316954	     -4.62173117	      3.60124522	     -2.59299081	     -0.00742660	      0.45550891	     11.74613622	      6.87401144	     -1.95088713	     -9.83219416	     -3.14222961	     -4.27207890	      3.75874136	     26.23626552	     -3.51373676	      2.92559389	    -60.79796433	    -16.03933511	    -12.04637064	     22.39047408	      6.17889553	      3.66043642	      2.72112859
      3.93000000	     -9.02810767	     -4.25703886	      3.27574109	     -2.58742398	     -0.00685922	      0.45628101	     11.18843340	      6.61124627	     -1.55644368	     -9.50379239	     -2.94602694	     -4.12823421	      3.76609811	     26.76257790	     -3.17089705	      2.59605567	    -60.16914107	    -15.35449820	    -11.94395250	     22.40201367	      6.17196499	      3.30959564	      3.19238198
      3.93500000	     -9.04856411	     -3.91650610	      2.95095272	     -2.58187465	     -0.00636687	      0.45701652	     10.62576086	      6.36495177	     -1.18679851	     -9.18306975	     -2.74426344	     -3.98224183	      3.77253870	     27.26253053	     -2.85899473	      2.26996403	    -59.48086765	    -14.70277159	    -11.91029729	     22.34839451	      6.15480683	      2.98849229	      3.63591257
      3.94000000	     -9.06994916	     -3.59903357	      2.61800920	     -2.57629376	     -0.00594819	      0.45775064	     10.06586137	      6.13753021	     -0.86150911	     -8.85476765	     -2.54914292	     -3.81817428	      3.78633755	     27.75114186	     -2.58857973	      1.93322996	    -58.73282329	    -14.12767534	    -11.92588920	     22.26944641	      6.14895672	      2.69404078	      4.08428041
      3.94500000	     -9.07082063	     -3.31027853	      2.27173480	     -2.57071727	     -0.00559690	      0.45845977	      9.48909858	      5.93437181	     -0.52710623	     -8.52808972	     -2.34723982	     -3.64527950	      3.79189969	     28.20594784	     -2.36406346	      1.58857120	    -57.93279742	    -13.58824810	    -11.98212328	     22.12907943	      6.12785995	      2.43504168	      4.53089397
      3.95000000	     -9.07527055	     -3.04059617	      1.94489247	     -2.56514543	     -0.00533824	      0.45911740	      8.92894256	      5.74081183	     -0.22038292	     -8.21894168	     -2.14215162	     -3.49484045	      3.79187195	     28.65459044	     -2.15586969	      1.26819946	    -57.07771836	    -13.08297706	    -12.08300891	     21.95442090	      6.11483943	      2.19822074	      4.92791372
      3.95500000	     -9.01458784	     -2.81528475	      1.56802287	     -2.55957124	     -0.00510062	      0.45978611	      8.29161433	      5.59559443	      0.15568754	     -7.89160252	     -1.92826498	     -3.31480841	      3.75935159	     29.02443847	     -2.03426863	      0.90074014	    -56.19754039	    -12.61348309	    -12.18407029	     21.61836973	      6.03350374	      2.02574213	      5.38217841
